<svg xmlns="http://www.w3.org/2000/svg" viewBox="0 0 900 240" width="900" height="240" fill="none" font-family="'Segoe UI', 'Helvetica Neue', Helvetica, Arial, sans-serif">
  <defs>
    <linearGradient id="nameGrad" x1="0" y1="0" x2="1" y2="1">
      <stop offset="0" stop-color="#39d353"/><stop offset="0.5" stop-color="#7ee787"/><stop offset="1" stop-color="#1f6feb"/>
    </linearGradient>
    <linearGradient id="flow" x1="0" y1="0" x2="1" y2="0">
      <stop offset="0" stop-color="#39d353"/><stop offset="0.5" stop-color="#1f6feb"/><stop offset="1" stop-color="#39d353"/>
    </linearGradient>
    <radialGradient id="glowG" cx="0.5" cy="0.5" r="0.5"><stop offset="0" stop-color="#39d353" stop-opacity="0.5"/><stop offset="1" stop-color="#39d353" stop-opacity="0"/></radialGradient>
    <radialGradient id="glowB" cx="0.5" cy="0.5" r="0.5"><stop offset="0" stop-color="#1f6feb" stop-opacity="0.45"/><stop offset="1" stop-color="#1f6feb" stop-opacity="0"/></radialGradient>
    <clipPath id="panel"><rect x="0" y="0" width="900" height="240" rx="16"/></clipPath>
    <clipPath id="nameClip"><text x="46" y="118" font-size="66" font-weight="800" letter-spacing="-1.5">Shubham Ratra</text></clipPath>
    <clipPath id="subClip" clipPathUnits="userSpaceOnUse"><rect x="50" y="150" width="0" height="26"><animate attributeName="width" dur="8s" repeatCount="indefinite" calcMode="discrete" keyTimes="0;0.18;0.1904;0.2008;0.2112;0.2215;0.2319;0.2423;0.2527;0.2631;0.2735;0.2838;0.2942;0.3046;0.315;0.3254;0.3358;0.3462;0.3565;0.3669;0.3773;0.3877;0.3981;0.4085;0.4188;0.4292;0.4396;0.45;0.4604;0.4708;0.4812;0.4915;0.5019;0.5123;0.5227;0.5331;0.5435;0.5538;0.5642;0.5746;0.585;0.5954;0.6058;0.6162;0.6265;0.6369;0.6473;0.6577;0.6681;0.6785;0.6888;0.6992;0.7096;0.72;1" values="0;0;10.4;20.8;31.2;41.6;52;62.4;72.8;83.2;93.6;104;114.4;124.8;135.2;145.6;156;166.4;176.8;187.2;197.6;208;218.4;228.8;239.2;249.6;260;270.4;280.8;291.2;301.6;312;322.4;332.8;343.2;353.6;364;374.4;384.8;395.2;405.6;416;426.4;436.8;447.2;457.6;468;478.4;488.8;499.2;509.6;520;530.4;540.8;548.8"/></rect></clipPath>
  </defs>

  <g clip-path="url(#panel)">
    <rect x="0" y="0" width="900" height="240" fill="#0a0e14"/>
    <g><animateTransform attributeName="transform" type="translate" from="0 0" to="30 30" dur="7s" repeatCount="indefinite"/><line x1="0" y1="0" x2="0" y2="240" stroke="#11202c" stroke-width="1"/><line x1="30" y1="0" x2="30" y2="240" stroke="#11202c" stroke-width="1"/><line x1="60" y1="0" x2="60" y2="240" stroke="#11202c" stroke-width="1"/><line x1="90" y1="0" x2="90" y2="240" stroke="#11202c" stroke-width="1"/><line x1="120" y1="0" x2="120" y2="240" stroke="#11202c" stroke-width="1"/><line x1="150" y1="0" x2="150" y2="240" stroke="#11202c" stroke-width="1"/><line x1="180" y1="0" x2="180" y2="240" stroke="#11202c" stroke-width="1"/><line x1="210" y1="0" x2="210" y2="240" stroke="#11202c" stroke-width="1"/><line x1="240" y1="0" x2="240" y2="240" stroke="#11202c" stroke-width="1"/><line x1="270" y1="0" x2="270" y2="240" stroke="#11202c" stroke-width="1"/><line x1="300" y1="0" x2="300" y2="240" stroke="#11202c" stroke-width="1"/><line x1="330" y1="0" x2="330" y2="240" stroke="#11202c" stroke-width="1"/><line x1="360" y1="0" x2="360" y2="240" stroke="#11202c" stroke-width="1"/><line x1="390" y1="0" x2="390" y2="240" stroke="#11202c" stroke-width="1"/><line x1="420" y1="0" x2="420" y2="240" stroke="#11202c" stroke-width="1"/><line x1="450" y1="0" x2="450" y2="240" stroke="#11202c" stroke-width="1"/><line x1="480" y1="0" x2="480" y2="240" stroke="#11202c" stroke-width="1"/><line x1="510" y1="0" x2="510" y2="240" stroke="#11202c" stroke-width="1"/><line x1="540" y1="0" x2="540" y2="240" stroke="#11202c" stroke-width="1"/><line x1="570" y1="0" x2="570" y2="240" stroke="#11202c" stroke-width="1"/><line x1="600" y1="0" x2="600" y2="240" stroke="#11202c" stroke-width="1"/><line x1="630" y1="0" x2="630" y2="240" stroke="#11202c" stroke-width="1"/><line x1="660" y1="0" x2="660" y2="240" stroke="#11202c" stroke-width="1"/><line x1="690" y1="0" x2="690" y2="240" stroke="#11202c" stroke-width="1"/><line x1="720" y1="0" x2="720" y2="240" stroke="#11202c" stroke-width="1"/><line x1="750" y1="0" x2="750" y2="240" stroke="#11202c" stroke-width="1"/><line x1="780" y1="0" x2="780" y2="240" stroke="#11202c" stroke-width="1"/><line x1="810" y1="0" x2="810" y2="240" stroke="#11202c" stroke-width="1"/><line x1="840" y1="0" x2="840" y2="240" stroke="#11202c" stroke-width="1"/><line x1="870" y1="0" x2="870" y2="240" stroke="#11202c" stroke-width="1"/><line x1="900" y1="0" x2="900" y2="240" stroke="#11202c" stroke-width="1"/><line x1="930" y1="0" x2="930" y2="240" stroke="#11202c" stroke-width="1"/><line x1="0" y1="0" x2="900" y2="0" stroke="#11202c" stroke-width="1"/><line x1="0" y1="30" x2="900" y2="30" stroke="#11202c" stroke-width="1"/><line x1="0" y1="60" x2="900" y2="60" stroke="#11202c" stroke-width="1"/><line x1="0" y1="90" x2="900" y2="90" stroke="#11202c" stroke-width="1"/><line x1="0" y1="120" x2="900" y2="120" stroke="#11202c" stroke-width="1"/><line x1="0" y1="150" x2="900" y2="150" stroke="#11202c" stroke-width="1"/><line x1="0" y1="180" x2="900" y2="180" stroke="#11202c" stroke-width="1"/><line x1="0" y1="210" x2="900" y2="210" stroke="#11202c" stroke-width="1"/><line x1="0" y1="240" x2="900" y2="240" stroke="#11202c" stroke-width="1"/><line x1="0" y1="270" x2="900" y2="270" stroke="#11202c" stroke-width="1"/></g>
    <ellipse cx="150" cy="40" rx="320" ry="220" fill="url(#glowG)"><animate attributeName="opacity" values="0.35;0.6;0.35" dur="9s" repeatCount="indefinite"/></ellipse>
    <ellipse cx="820" cy="220" rx="300" ry="200" fill="url(#glowB)"><animate attributeName="opacity" values="0.5;0.28;0.5" dur="11s" repeatCount="indefinite"/></ellipse>
    <circle cx="760" cy="70" r="3" fill="#39d353"><animate attributeName="cy" values="70;56;70" dur="5s" repeatCount="indefinite" calcMode="spline" keyTimes="0;0.5;1" keySplines="0.4 0 0.2 1;0.4 0 0.2 1"/><animate attributeName="opacity" values="0.9;0.3;0.9" dur="5s" repeatCount="indefinite"/></circle><circle cx="820" cy="150" r="2.5" fill="#1f6feb"><animate attributeName="cy" values="150;136;150" dur="6.5s" repeatCount="indefinite" calcMode="spline" keyTimes="0;0.5;1" keySplines="0.4 0 0.2 1;0.4 0 0.2 1"/><animate attributeName="opacity" values="0.9;0.3;0.9" dur="6.5s" repeatCount="indefinite"/></circle><circle cx="700" cy="190" r="2" fill="#7ee787"><animate attributeName="cy" values="190;176;190" dur="7.5s" repeatCount="indefinite" calcMode="spline" keyTimes="0;0.5;1" keySplines="0.4 0 0.2 1;0.4 0 0.2 1"/><animate attributeName="opacity" values="0.9;0.3;0.9" dur="7.5s" repeatCount="indefinite"/></circle><circle cx="860" cy="100" r="2.5" fill="#39d353"><animate attributeName="cy" values="100;86;100" dur="5.8s" repeatCount="indefinite" calcMode="spline" keyTimes="0;0.5;1" keySplines="0.4 0 0.2 1;0.4 0 0.2 1"/><animate attributeName="opacity" values="0.9;0.3;0.9" dur="5.8s" repeatCount="indefinite"/></circle>

    <!-- name -->
    <text x="46" y="118" font-size="66" font-weight="800" letter-spacing="-1.5" fill="url(#nameGrad)">Shubham Ratra</text>
    <!-- sheen sweep over the name -->
    <g clip-path="url(#nameClip)"><rect x="-160" y="40" width="120" height="100" fill="#ffffff" opacity="0.16" transform="skewX(-18)"><animate attributeName="x" values="-200;900" dur="4.5s" repeatCount="indefinite" keyTimes="0;1" calcMode="spline" keySplines="0.5 0 0.5 1"/></rect></g>

    <!-- subtitle typing -->
    <g font-family="'DejaVu Sans Mono','Courier New',monospace" font-size="18">
      <text x="50" y="168" fill="#9aa7b6" clip-path="url(#subClip)">&gt; Backend Developer · API Architect · Problem Solver</text>
    </g>
    <rect x="598.8" y="153" width="9" height="19" fill="#39d353"><animate attributeName="opacity" values="1;1;0;0" dur="1s" repeatCount="indefinite" calcMode="discrete" keyTimes="0;0.5;0.5;1"/></rect>

    <!-- bottom flow accent -->
    <rect x="46" y="196" width="360" height="3" rx="1.5" fill="url(#flow)"><animate attributeName="opacity" values="0.7;1;0.7" dur="3s" repeatCount="indefinite"/></rect>

    <rect x="0.75" y="0.75" width="898.5" height="238.5" rx="16" fill="none" stroke="#1c2230" stroke-width="1.5"/>
  </g>
</svg>
